<svg width="96" height="96" viewBox="0 0 96 96" fill="none" xmlns="http://www.w3.org/2000/svg">
<path d="M0 24C0 10.7452 10.7452 0 24 0H72C85.2548 0 96 10.7452 96 24V72C96 85.2548 85.2548 96 72 96H24C10.7452 96 0 85.2548 0 72V24Z" fill="url(#paint0_linear_3080_6014)"/>
<path d="M73.9637 43.986H75.6542C75.7684 43.986 77.2305 43.9392 76.4538 41.8327C75.6314 39.6326 73.0727 39.4922 73.0727 39.4922L69.189 25.0512C69.189 25.0512 68.7092 22.5 66.2648 22.5C63.7975 22.5 43.351 22.5 43.351 22.5C43.351 22.5 40.1983 22.5702 40.1983 26.1278H43.1682L39.6501 39.7028H36.1776V32.4472C36.1776 32.4472 36.1547 29.9897 33.7103 29.9897C31.243 29.9897 30.4434 29.9897 30.4434 29.9897L31.4486 32.6345H33.0935C33.0935 32.6345 33.1163 32.6345 33.1391 32.6345C33.2762 32.6345 33.6874 32.7047 33.6874 33.5239C33.6874 34.5069 33.6874 39.7731 33.6874 39.7731H22.5618C22.5618 39.7731 22.5618 39.7731 22.5389 39.7731C22.242 39.7731 18.541 39.8433 18.541 43.6583C18.541 47.6372 19.2492 54.6588 19.2492 54.6588C16.6906 56.5312 15 59.6207 15 63.1315C15 68.8658 19.5462 73.5 25.1433 73.5C30.7404 73.5 35.2866 68.8424 35.2866 63.1081C35.2866 60.791 34.5327 58.6377 33.2762 56.9057H37L37.7996 59.0824H45.9553L46.6636 56.8121L49.5192 56.8355C49.5192 57.0227 49.5192 57.1866 49.5192 57.3738C49.5192 66.2678 56.5556 73.5 65.2596 73.5C73.9408 73.5 81 66.2912 81 57.3738C80.9543 51.8034 78.1672 46.8883 73.9637 43.986ZM25.1661 68.5615C22.1963 68.5615 19.7747 66.0805 19.7747 63.0379C19.7747 59.9952 22.1963 57.5142 25.1661 57.5142C28.136 57.5142 30.5576 59.9952 30.5576 63.0379C30.5805 66.0805 28.1589 68.5615 25.1661 68.5615ZM57.6293 27.1108C57.6293 26.9704 57.6521 26.2448 58.2004 25.7065C58.4517 25.4491 58.8858 25.1448 59.6168 25.1448H65.8764C66.1277 25.1448 67.4299 25.2618 67.8868 27.3683C68.2295 28.8896 70.1028 36.941 70.1713 37.2921C70.217 37.4793 70.4226 38.4156 69.8744 39.1645C69.6231 39.5156 69.1205 39.9135 68.2066 39.9135H59.6168C58.8172 39.9135 57.6521 39.3752 57.6521 37.8772V27.1108H57.6293ZM44.6989 40.0071C44.676 40.0071 44.6532 40.0071 44.6303 40.0071C44.5389 40.0071 43.648 39.9135 43.1225 39.1879C42.8712 38.8603 42.6199 38.2985 42.8027 37.4325C43.0997 36.0282 45.0187 26.7129 45.0415 26.6193C45.0415 26.5959 45.0415 26.5725 45.0644 26.5257C45.2243 26.0108 45.7954 25.1448 46.9605 25.1448H54.4309C55.1848 25.1448 56.3956 25.7065 56.3956 27.181V38.1815C56.3956 38.2049 56.3956 38.2283 56.3956 38.2283C56.3499 38.9305 55.8017 39.9837 54.4538 39.9837H44.6989V40.0071ZM65.2596 68.07C59.5711 68.07 54.9335 63.3187 54.9335 57.4908C54.9335 51.6629 59.5711 46.9117 65.2596 46.9117C70.9481 46.9117 75.5857 51.6629 75.5857 57.4908C75.5857 63.3187 70.9481 68.07 65.2596 68.07Z" fill="#212433"/>
<path opacity="0.5" d="M69.8741 39.1648C69.6228 39.5158 69.1202 39.9137 68.2064 39.9137H59.6166C58.817 39.9137 57.6519 39.3754 57.6519 37.8775V27.1111C57.6519 26.9706 57.6747 26.2451 58.223 25.7067C58.4743 25.4493 58.9083 25.145 59.6394 25.145H65.899C66.1503 25.145 67.4525 25.262 67.9094 27.3685C68.2521 28.8899 70.1254 36.9413 70.1939 37.2923C70.2168 37.503 70.4224 38.4392 69.8741 39.1648Z" fill="#212433"/>
<path opacity="0.5" d="M56.3955 27.181V38.1815C56.3955 38.2049 56.3955 38.2283 56.3955 38.2283C56.3498 38.9304 55.8015 39.9837 54.4537 39.9837H44.6987C44.6759 39.9837 44.653 39.9837 44.6302 39.9837C44.5388 39.9837 43.6479 39.89 43.1224 39.1645C42.8711 38.8368 42.6198 38.2751 42.8026 37.4091C43.0996 36.0048 45.0186 26.6895 45.0414 26.5959C45.0414 26.5725 45.0414 26.5491 45.0643 26.5022C45.2242 25.9873 45.7953 25.1213 46.9604 25.1213H54.4308C55.1847 25.1447 56.3955 25.7065 56.3955 27.181Z" fill="#212433"/>
<path opacity="0.5" d="M65.2597 47.7777C60.051 47.7777 55.8018 52.1311 55.8018 57.4675C55.8018 62.8039 60.051 67.1572 65.2597 67.1572C70.4684 67.1572 74.7176 62.8039 74.7176 57.4675C74.7176 52.1311 70.4684 47.7777 65.2597 47.7777ZM65.2597 62.4294C62.5868 62.4294 60.4393 60.2059 60.4393 57.4909C60.4393 54.7525 62.6096 52.5524 65.2597 52.5524C67.9326 52.5524 70.08 54.7759 70.08 57.4909C70.08 60.2059 67.9097 62.4294 65.2597 62.4294Z" fill="#212433"/>
<path opacity="0.5" d="M25.1662 58.3801C22.6761 58.3801 20.6428 60.4632 20.6428 63.0144C20.6428 65.5655 22.6761 67.6486 25.1662 67.6486C27.6563 67.6486 29.6896 65.5655 29.6896 63.0144C29.7124 60.4632 27.6792 58.3801 25.1662 58.3801ZM25.1662 65.2847C23.9554 65.2847 22.9502 64.2782 22.9502 63.0144C22.9502 61.7739 23.9325 60.7441 25.1662 60.7441C26.377 60.7441 27.3822 61.7505 27.3822 63.0144C27.3822 64.2782 26.3998 65.2847 25.1662 65.2847Z" fill="#212433"/>
<defs>
<linearGradient id="paint0_linear_3080_6014" x1="0" y1="0" x2="96" y2="96" gradientUnits="userSpaceOnUse">
<stop stop-color="#F0FF00"/>
<stop offset="1" stop-color="#58CFFB"/>
</linearGradient>
</defs>
</svg>
